<svg width="28" height="20" viewBox="0 0 28 20" fill="none" xmlns="http://www.w3.org/2000/svg">
<rect width="28" height="20" rx="2" fill="url(#paint0_radial)"/>
<path fill-rule="evenodd" clip-rule="evenodd" d="M19.6629 11.5405C19.2631 12.4497 18.3886 13.55 17.6481 14.2099C16.966 14.7975 16.2103 15.252 15.3956 15.5453C14.5808 15.853 13.6033 16 12.4917 16C11.1282 16 10.0768 15.8091 9.33593 15.4423C8.58042 15.0756 8.04665 14.43 7.70642 13.5059C7.3794 12.5965 7.43909 11.4081 7.89869 9.97045C8.49161 8.04979 9.51373 6.58148 10.9363 5.55552C12.373 4.52865 14.0919 4 16.107 4C17.6772 4 18.8182 4.2937 19.5296 4.89506C20.4925 5.6721 20.7 6.94878 20.7 8.09312H17.0409C16.9962 7.57969 16.8034 7.1687 16.3297 6.90473C16.0622 6.75788 15.7366 6.68446 15.3511 6.68446C14.477 6.68446 13.6916 7.00698 13.0249 7.66744C12.5215 8.15186 12.1062 8.91458 11.7653 9.95577C11.3654 11.2319 11.2917 12.1128 11.5728 12.5965C11.8398 13.0666 12.3585 13.3154 13.1139 13.3154C13.8549 13.3154 14.477 13.1098 14.9662 12.7289C15.3511 12.4497 15.7067 12.0249 16.0182 11.5405H19.6629Z" fill="white"/>
<defs>
<radialGradient id="paint0_radial" cx="0" cy="0" r="1" gradientUnits="userSpaceOnUse" gradientTransform="translate(14 10) rotate(90) scale(10 14)">
<stop stop-color="#1166CF"/>
<stop offset="1" stop-color="#03509E"/>
</radialGradient>
</defs>
</svg>
