<?xml version="1.0" encoding="utf-8"?>
<!-- Generator: Adobe Illustrator 14.0.0, SVG Export Plug-In . SVG Version: 6.00 Build 43363)  -->
<!DOCTYPE svg PUBLIC "-//W3C//DTD SVG 1.1//EN" "http://www.w3.org/Graphics/SVG/1.1/DTD/svg11.dtd">
<svg version="1.1" id="Layer_1" xmlns="http://www.w3.org/2000/svg" xmlns:xlink="http://www.w3.org/1999/xlink" x="0px" y="0px"
	 viewBox="0 0 612 792" enable-background="new 0 0 612 792" xml:space="preserve">
<g>
	<path fill-rule="evenodd" clip-rule="evenodd" d="M226.532,386.413c10.755-0.714,34.134,0.083,31.299,6.298
		c1.979-1.149,4.587-2.286,6.941-2.195c2.243,0.086,3.51,0.565,4.326,2.604c0.892-0.667,1.612-1.063,2.55-1.249
		c1.657-0.328,2.999,0.711,2.228,2.136c-0.468,0.865-1.165,1.253-1.935,1.921c3.484-0.522,10.073-3.637,12.833-4.577
		c2.036-0.694,3.516,0.117,2.597,2.012c-0.299,0.617-0.831,0.996-1.35,1.348c2.621-0.651,7.37-2.824,10.396-3.286
		c1.382-0.211,2.184,0.026,3.222,0.534c1.632,0.798,2.577,0.292,5.625,0.173c0.829,0.114,1.366-0.397,1.987-1.118l5.404-5.329
		c1.354-1.469,4.423,0.466,2.559,2.318l-3.951,3.923c3.913-0.205,6.229-0.406,9.976-0.359c3.696-0.508,8.48-0.977,10.34,0.981
		c2.115-0.294,5.699-0.522,7.814-0.594c0.684-0.023,2.13,0.419,1.524,1.813c-0.268,0.618-0.854,0.958-1.489,1.395
		c1.399-0.314,5.429-2.389,8.331-3.207c2.773-0.768,4.127-0.168,3.812,1.631c-0.109,0.62-0.841,1.521-1.638,1.99
		c4.845-1.592,9.229-2.515,13.781-3.271c4.701-2.637,8.483-1.473,9.051,0.782c0.895-0.259,1.834-0.622,2.683-0.778
		c2.749-0.506,3.033,0.979,2.349,2.186c-0.383,0.674-1.15,1.042-1.788,1.564c1.933-0.046,10.337-1.733,15.359-1.201
		c2.44,0.259,2.34,2.017,0.682,2.078c-5.747,0.209-11.038,1.124-17.74,3.018c-3.403,0.963-4.537-0.345-4.009-2.569
		c-2.738,0.886-5.603,1.938-8.34,2.699c-2.892,0.804-7.306,0.032-4.549-3.722c-2.882,0.446-6.282,1.986-9.188,3.178
		c-3.803,1.559-5.843-0.414-2.438-3.89c-2.634,0.693-6.637,3.03-9.906,4.587c-2.569,1.225-5.495,1.067-3.033-2.841
		c0.596-0.946,1.763-1.817,2.645-2.726c-0.391-0.042-2.96,0.169-3.35,0.293c-2.376,4.042-6.006,5.635-10.512,5.743
		c-6.096,0.146-7.877-4.126-5.405-6.64c-2.756,0.083-3.863,0.307-6.281,0.381c-0.895,0.028-1.955,0.096-2.432,0.645
		c-1.524,1.329-2.801,3.25-4.195,4.405c-2.204,1.824-3.96-0.181-2.683-2.102c0.554-0.833,1.592-1.483,2.388-2.226
		c-2.379,0.667-3.992-0.22-4.71-1.094c-4.774,2.641-8.327,5.849-11.217,8.723c-0.148,0.146-0.293,0.292-0.438,0.437
		c36.333-0.568,70.686,1.439,103.054,4.353c-57.371-2.35-114.837-2.35-172.207,0c22.009-2.48,43.378-3.796,64.109-4.257
		c2.506-2.214,5.733-4.49,8.878-6.81c-3.086,1.147-11.16,4.045-9.361-0.914c-3.146,0.744-7.004,2.615-10.568,3.736
		c-3.52,1.108-3.94-1.464-2.904-3.079c-2.728,1.369-6.019,2.408-9.059,3.232c-6.066,1.646-7.62-1.064-4.854-3.989
		c-5.271,1.621-14.175,3.458-21.576,3.746c-1.61,3.034-4.432,2.021-4.039,0.709c-2.344,0.201-5.065,0.361-7.451,0.354
		c-3.192-0.002-2.919-3.184-0.558-3.279c3.579-0.389,7.742-0.653,10.861-0.917c1.159-1.25,2.581-3.008,4.103-3.751
		c1.697-0.829,3.716,0.164,2.833,1.11c-0.765,0.817-1.56,1.227-2.339,2.154c1.993,0.206,17.49-2.332,17.577-3.706
		c0.168-2.658-26.41-4.079-27.908-1.756c-0.128,0.388,1.579,0.758,2.383,1.207c1.102,0.614,0.362,1.575-0.73,1.814
		c-2.361,0.516-6.683-1.156-6.538-3.422C220.477,388.012,223.303,386.627,226.532,386.413L226.532,386.413L226.532,386.413z
		 M266.062,393.579c-0.209-1.103-6.852,0.778-9.089,2.885C258.71,396.832,266.271,394.681,266.062,393.579L266.062,393.579
		L266.062,393.579z M369.955,394.045c-0.208-1.103-6.851,0.779-9.088,2.886C362.604,397.299,370.165,395.148,369.955,394.045
		L369.955,394.045L369.955,394.045z M320.205,394.491c1.072,0.148,3.7,1.003,4.698-0.739c2.053-0.224,3.747,0.062,3.609,0.985
		c-0.204,1.368-3.655,2.589-6.137,2.818c-1.21,0.151-3.503,0.254-3.93-1.19C318.321,395.944,319.357,394.742,320.205,394.491
		L320.205,394.491L320.205,394.491z"/>
</g>
</svg>
